# xmcd CD database file
#
# Track frame offsets:
#	150
#	12438
#	29701
#	44084
#	62763
#	88089
#	101465
#	117214
#	149416
#	164787
#	185191
#	204367
#	217214
#
# Disc length: 3001 seconds
#
# Revision: 0
# Processed by: cddbd v1.5.2PL0 Copyright (c) Steve Scherf et al.
# Submitted via: CDex 1.51
#
DISCID=d00bb70d
DTITLE=Goodfellas - Good Guys
DYEAR=1900
DGENRE=Jazz
TTITLE0=Love Theme
TTITLE1=Down In Honky Tonk Town
TTITLE2=Second Line
TTITLE3=Ice Cream
TTITLE4=My Indian Red
TTITLE5=Hello Dolly
TTITLE6=I'll Be Glad When You're Dead
TTITLE7=Black 'n Blue
TTITLE8=Shine
TTITLE9=Lilly Of The Valley
TTITLE10=Tiger Rag
TTITLE11=When The Saints
TTITLE12=Good Guys
EXTD=
EXTT0=
EXTT1=
EXTT2=
EXTT3=
EXTT4=
EXTT5=
EXTT6=
EXTT7=
EXTT8=
EXTT9=
EXTT10=
EXTT11=
EXTT12=
PLAYORDER=
